<svg width="458" height="458" viewBox="0 0 458 458" fill="none" xmlns="http://www.w3.org/2000/svg">
<circle cx="229" cy="229" r="229" fill="#AEB8FF"/>
<path d="M333.233 316.562C333.233 316.562 333.233 280.226 306.688 267.022C289.888 258.663 296.362 265.058 275.736 256.506C255.114 247.968 250.228 245.177 250.228 245.177L250.046 225.591C250.046 225.591 257.769 219.729 260.179 201.207C265.001 202.603 266.633 195.554 266.896 191.05C267.181 186.7 269.747 173.14 263.848 174.35C265.054 165.297 266.002 157.111 265.576 152.777C264.101 137.569 253.585 121.686 227.04 120.526C204.474 121.686 189.824 137.579 188.345 152.787C187.92 157.121 188.787 165.3 189.993 174.37C184.098 173.143 186.637 186.73 186.896 191.077C187.182 195.58 188.777 202.649 193.609 201.253C196.009 219.779 203.733 225.684 203.733 225.684L203.54 245.376C203.54 245.376 198.654 248.357 178.032 256.895C157.41 265.45 163.877 258.667 147.077 267.022C120.526 280.233 120.526 316.562 120.526 316.562H120.533C120.529 316.569 120.526 316.578 120.526 316.585C120.526 322.092 124.989 326.556 130.496 326.556H323.259C328.766 326.556 333.229 322.092 333.229 316.585C333.229 316.575 333.226 316.569 333.226 316.562H333.233Z" fill="white"/>
</svg>
